<svg width="20" height="20" viewBox="0 0 20 20" fill="none" xmlns="http://www.w3.org/2000/svg">
<g clip-path="url(#clip0_567_697)">
<path d="M4.1892 16.7748H5.81195C6.39844 16.7748 6.87689 17.2664 6.87689 17.8741V18.3863C6.87689 19.2785 6.17575 20.0023 5.31146 20.0023H4.6897C3.8254 20.0023 3.12427 19.2785 3.12427 18.3863V17.8741C3.12427 17.2687 3.60051 16.7748 4.1892 16.7748Z" fill="white"/>
<path d="M14.1881 16.7748H15.8109C16.3973 16.7748 16.8758 17.2664 16.8758 17.8741V18.3863C16.8758 19.2785 16.1747 20.0023 15.3104 20.0023H14.6886C13.8243 20.0023 13.1232 19.2785 13.1232 18.3863V17.8741C13.1232 17.2687 13.5994 16.7748 14.1881 16.7748Z" fill="white"/>
<path d="M0.83563 4.51575C0.374821 4.51575 0 4.90268 0 5.37838V8.16887C0 8.64457 0.374821 9.03151 0.83563 9.03151C1.06493 9.03151 1.25014 8.84032 1.25014 8.6036V4.94365C1.25014 4.70694 1.06493 4.51575 0.83563 4.51575Z" fill="white"/>
<path d="M19.1644 4.51575C19.6252 4.51575 20 4.90268 20 5.37838V8.16887C20 8.64457 19.6252 9.03151 19.1644 9.03151C18.9351 9.03151 18.7499 8.84032 18.7499 8.6036V4.94365C18.7499 4.70694 18.9351 4.51575 19.1644 4.51575Z" fill="white"/>
<path d="M13.9301 0H6.06993C3.75266 0 1.87415 1.93923 1.87415 4.3314V15.4296C1.87415 16.8863 3.01845 18.0653 4.42734 18.0653H15.5705C16.9816 18.0653 18.1237 16.884 18.1237 15.4296V4.3314C18.1237 1.93923 16.2452 0 13.9279 0H13.9301ZM8.01018 1.29054H11.9899C12.2721 1.29054 12.4992 1.52726 12.4992 1.81632V2.05303C12.4992 2.34437 12.2699 2.57881 11.9899 2.57881H8.01018C7.72797 2.57881 7.50087 2.3421 7.50087 2.05303V1.81632C7.50087 1.52498 7.73017 1.29054 8.01018 1.29054ZM4.68751 16.7748C3.82542 16.7748 3.12428 16.0533 3.12428 15.161C3.12428 14.2688 3.82321 13.5473 4.68751 13.5473C5.5518 13.5473 6.25073 14.2688 6.25073 15.161C6.25073 16.0533 5.5518 16.7748 4.68751 16.7748ZM15.619 16.7452C14.5188 16.9614 13.5708 15.9827 13.7802 14.8469C13.8971 14.2119 14.3932 13.6998 15.0083 13.5792C16.1085 13.3629 17.0566 14.3416 16.8471 15.4774C16.7303 16.1124 16.2342 16.6246 15.619 16.7452ZM15.7778 12.259H4.22008C3.61376 12.259 3.12428 11.7515 3.12428 11.1278V5.00285C3.12428 4.37692 3.61596 3.87163 4.22008 3.87163H15.7778C16.3841 3.87163 16.8736 4.3792 16.8736 5.00285V11.1278C16.8736 11.7537 16.3819 12.259 15.7778 12.259Z" fill="white"/>
</g>
<defs>
<clipPath id="clip0_567_697">
<rect width="24" height="24" fill="white"/>
</clipPath>
</defs>
</svg>
