<svg width="15" height="20" viewBox="0 0 15 20" fill="none" xmlns="http://www.w3.org/2000/svg">
<g clip-path="url(#clip0_557_1166)">
<path d="M8.09489 4.31877C9.26845 4.31877 10.2198 3.35198 10.2198 2.15938C10.2198 0.966789 9.26845 0 8.09489 0C6.92133 0 5.96997 0.966789 5.96997 2.15938C5.96997 3.35198 6.92133 4.31877 8.09489 4.31877Z" fill="white"/>
<path d="M9.06811 6.71454C9.31348 5.64637 8.66071 4.57839 7.61008 4.32915C6.55946 4.07992 5.50885 4.74379 5.26347 5.81197L4.16103 10.6111C3.91565 11.6792 4.56843 12.7472 5.61905 12.9964C6.66968 13.2457 7.72029 12.5818 7.96567 11.5136L9.06811 6.71454Z" fill="white"/>
<path d="M8.83298 5.23123C8.49365 4.74475 7.83049 4.62992 7.35178 4.97475C6.87306 5.31958 6.76006 5.99349 7.09939 6.47997L9.35654 9.71597C9.69587 10.2024 10.359 10.3173 10.8377 9.97245C11.3165 9.62762 11.4295 8.95371 11.0901 8.46723L8.83298 5.23123Z" fill="white"/>
<path d="M10.4691 8.11477C9.89171 8.00845 9.33884 8.39792 9.23422 8.98466C9.12961 9.57141 9.51286 10.1332 10.0902 10.2396L13.7484 10.9131C14.3257 11.0194 14.8786 10.63 14.9832 10.0432C15.0878 9.45647 14.7046 8.89464 14.1272 8.78833L10.4691 8.11477Z" fill="white"/>
<path d="M7.21053 11.2521C6.77276 10.855 6.10113 10.8938 5.7104 11.3387C5.31968 11.7835 5.35781 12.466 5.79559 12.8631L8.56919 15.3788C9.00696 15.7759 9.67859 15.7371 10.0693 15.2922C10.46 14.8474 10.4219 14.1648 9.98413 13.7678L7.21053 11.2521Z" fill="white"/>
<path d="M4.06614 16.124L4.29324 16.1739C4.86675 16.3 5.43227 15.9298 5.55637 15.347L6.45797 11.1129C6.58207 10.5301 6.21775 9.95541 5.64425 9.8293L5.41715 9.77936C4.84364 9.65325 4.27812 10.0235 4.15401 10.6063L3.25242 14.8404C3.12832 15.4232 3.49263 15.9979 4.06614 16.124Z" fill="white"/>
<path d="M0.656186 19.151L0.829535 19.3083C1.26731 19.7053 1.93894 19.6666 2.32967 19.2217L5.16829 15.9897C5.55902 15.5448 5.52088 14.8623 5.08311 14.4653L4.90976 14.308C4.47199 13.911 3.80036 13.9497 3.40963 14.3946L0.571002 17.6266C0.180275 18.0715 0.218413 18.754 0.656186 19.151Z" fill="white"/>
<path d="M4.18559 6.78065C4.52491 6.29417 4.41192 5.62026 3.9332 5.27543C3.45448 4.9306 2.79133 5.04543 2.452 5.53191L0.194848 8.76791C-0.144479 9.25439 -0.0314803 9.9283 0.447236 10.2731C0.925953 10.618 1.58911 10.5031 1.92843 10.0166L4.18559 6.78065Z" fill="white"/>
<path d="M7.22086 6.46016C7.79824 6.35385 8.18149 5.79202 8.07687 5.20528C7.97226 4.61853 7.41939 4.22907 6.84201 4.33538L3.1839 5.00894C2.60652 5.11525 2.22327 5.67709 2.32788 6.26383C2.4325 6.85057 2.98536 7.24004 3.56274 7.13373L7.22086 6.46016Z" fill="white"/>
<path d="M10.358 14.4324C10.2682 13.8431 9.72524 13.4395 9.14539 13.5308C8.56553 13.6221 8.16831 14.1739 8.25818 14.7631L8.91712 19.0836C9.00699 19.6729 9.54991 20.0765 10.1298 19.9852C10.7096 19.8939 11.1068 19.3422 11.017 18.7529L10.358 14.4324Z" fill="white"/>
</g>
<defs>
<clipPath id="clip0_557_1166">
<rect width="15" height="20" fill="white"/>
</clipPath>
</defs>
</svg>
