<svg width="17" height="22" viewBox="0 0 17 22" fill="none" xmlns="http://www.w3.org/2000/svg">
<g clip-path="url(#clip0_1021_2000)">
<path d="M9.17424 4.75064C10.5043 4.75064 11.5825 3.68718 11.5825 2.37532C11.5825 1.06347 10.5043 0 9.17424 0C7.8442 0 6.76599 1.06347 6.76599 2.37532C6.76599 3.68718 7.8442 4.75064 9.17424 4.75064Z" fill="#A3A3A3"/>
<path d="M10.2771 7.38599C10.5552 6.211 9.81542 5.03623 8.62471 4.76207C7.43401 4.48791 6.24331 5.21817 5.96521 6.39316L4.71579 11.6722C4.43769 12.8471 5.17751 14.0219 6.36821 14.2961C7.55892 14.5702 8.74962 13.84 9.02771 12.665L10.2771 7.38599Z" fill="#A3A3A3"/>
<path d="M10.0107 5.75432C9.6261 5.21919 8.87452 5.09288 8.33197 5.47219C7.78943 5.8515 7.66137 6.5928 8.04594 7.12793L10.604 10.6875C10.9886 11.2227 11.7402 11.349 12.2827 10.9697C12.8253 10.5903 12.9533 9.84904 12.5688 9.31392L10.0107 5.75432Z" fill="#A3A3A3"/>
<path d="M11.865 8.92627C11.2107 8.80932 10.5841 9.23774 10.4655 9.88316C10.347 10.5286 10.7813 11.1466 11.4357 11.2635L15.5815 12.0045C16.2359 12.1214 16.8625 11.693 16.9811 11.0476C17.0996 10.4021 16.6653 9.78413 16.0109 9.66719L11.865 8.92627Z" fill="#A3A3A3"/>
<path d="M8.17187 12.3773C7.67573 11.9405 6.91455 11.9832 6.47172 12.4725C6.0289 12.9619 6.07212 13.7127 6.56827 14.1494L9.71168 16.9167C10.2078 17.3534 10.969 17.3108 11.4118 16.8214C11.8546 16.3321 11.8114 15.5813 11.3153 15.1445L8.17187 12.3773Z" fill="#A3A3A3"/>
<path d="M4.60834 17.7364L4.86572 17.7913C5.51569 17.9301 6.15662 17.5228 6.29727 16.8817L7.31908 12.2242C7.45973 11.5831 7.04684 10.951 6.39686 10.8122L6.13948 10.7573C5.48951 10.6186 4.84858 11.0258 4.70793 11.6669L3.68612 16.3244C3.54547 16.9655 3.95836 17.5977 4.60834 17.7364Z" fill="#A3A3A3"/>
<path d="M0.743693 21.0661L0.940157 21.2391C1.4363 21.6759 2.19748 21.6332 2.6403 21.1439L5.85741 17.5887C6.30024 17.0993 6.25701 16.3485 5.76087 15.9118L5.56441 15.7388C5.06827 15.3021 4.30709 15.3447 3.86426 15.834L0.647151 19.3892C0.204328 19.8786 0.247551 20.6294 0.743693 21.0661Z" fill="#A3A3A3"/>
<path d="M4.74375 7.4587C5.12832 6.92357 5.00025 6.18227 4.45771 5.80296C3.91516 5.42364 3.16359 5.54996 2.77902 6.08508L0.220909 9.64468C-0.163662 10.1798 -0.0355968 10.9211 0.506949 11.3004C1.04949 11.6797 1.80107 11.5534 2.18564 11.0183L4.74375 7.4587Z" fill="#A3A3A3"/>
<path d="M8.18374 7.1062C8.8381 6.98926 9.27245 6.37124 9.15389 5.72582C9.03532 5.0804 8.40874 4.65199 7.75438 4.76893L3.60852 5.50985C2.95415 5.6268 2.5198 6.24481 2.63836 6.89023C2.75693 7.53565 3.38351 7.96406 4.03787 7.84712L8.18374 7.1062Z" fill="#A3A3A3"/>
<path d="M11.7392 15.8756C11.6373 15.2275 11.022 14.7834 10.3648 14.8839C9.70767 14.9844 9.25749 15.5913 9.35935 16.2394L10.1061 20.992C10.208 21.6402 10.8233 22.0842 11.4805 21.9837C12.1377 21.8833 12.5878 21.2764 12.486 20.6282L11.7392 15.8756Z" fill="#A3A3A3"/>
</g>
<defs>
<clipPath id="clip0_1021_2000">
<rect width="17" height="22" fill="white"/>
</clipPath>
</defs>
</svg>
