<svg width="17" height="22" viewBox="0 0 17 22" fill="none" xmlns="http://www.w3.org/2000/svg">
<g clip-path="url(#clip0_1075_68)">
<path d="M9.13463 4.94002C10.3864 4.94002 11.4012 3.90878 11.4012 2.63668C11.4012 1.36458 10.3864 0.333336 9.13463 0.333336C7.88283 0.333336 6.86804 1.36458 6.86804 2.63668C6.86804 3.90878 7.88283 4.94002 9.13463 4.94002Z" fill="white"/>
<path d="M10.1726 7.4955C10.4344 6.35612 9.73806 5.21694 8.6174 4.95109C7.49673 4.68524 6.37608 5.39337 6.11434 6.53276L4.93841 11.6518C4.67667 12.7912 5.37297 13.9303 6.49363 14.1962C7.6143 14.462 8.73495 13.7539 8.99669 12.6145L10.1726 7.4955Z" fill="white"/>
<path d="M9.92176 5.9133C9.55981 5.39438 8.85245 5.2719 8.34182 5.63972C7.83118 6.00753 7.71065 6.72637 8.0726 7.24528L10.4802 10.697C10.8422 11.2159 11.5495 11.3384 12.0602 10.9706C12.5708 10.6028 12.6913 9.88394 12.3294 9.36503L9.92176 5.9133Z" fill="white"/>
<path d="M11.6671 8.9891C11.0512 8.8757 10.4615 9.29113 10.3499 9.91699C10.2383 10.5428 10.6471 11.1421 11.263 11.2555L15.165 11.974C15.7808 12.0874 16.3705 11.672 16.4821 11.0461C16.5937 10.4203 16.1849 9.82096 15.5691 9.70757L11.6671 8.9891Z" fill="white"/>
<path d="M8.1912 12.3356C7.72425 11.912 7.00784 11.9534 6.59106 12.4279C6.17429 12.9024 6.21497 13.6305 6.68193 14.054L9.64043 16.7374C10.1074 17.1609 10.8238 17.1196 11.2406 16.6451C11.6573 16.1705 11.6167 15.4425 11.1497 15.019L8.1912 12.3356Z" fill="white"/>
<path d="M4.83724 17.5323L5.07948 17.5855C5.69122 17.7201 6.29444 17.3252 6.42682 16.7035L7.38852 12.1871C7.5209 11.5655 7.13229 10.9524 6.52055 10.8179L6.27831 10.7647C5.66657 10.6301 5.06335 11.025 4.93097 11.6467L3.96927 16.1631C3.83689 16.7847 4.2255 17.3977 4.83724 17.5323Z" fill="white"/>
<path d="M1.19994 20.7611L1.38485 20.9288C1.8518 21.3524 2.56821 21.311 2.98498 20.8365L6.01285 17.389C6.42963 16.9145 6.38895 16.1865 5.92199 15.7629L5.73708 15.5952C5.27013 15.1717 4.55372 15.213 4.13695 15.6876L1.10908 19.135C0.692301 19.6095 0.732982 20.3376 1.19994 20.7611Z" fill="white"/>
<path d="M4.96467 7.56603C5.32662 7.04711 5.20608 6.32828 4.69545 5.96046C4.18482 5.59264 3.47746 5.71513 3.11551 6.23404L0.707878 9.68577C0.34593 10.2047 0.466462 10.9235 0.977093 11.2913C1.48772 11.6592 2.19509 11.5367 2.55704 11.0178L4.96467 7.56603Z" fill="white"/>
<path d="M8.2023 7.22419C8.81817 7.11079 9.22697 6.51151 9.11538 5.88565C9.00379 5.25979 8.41407 4.84435 7.7982 4.95775L3.89621 5.67622C3.28033 5.78962 2.87153 6.38891 2.98312 7.01477C3.09471 7.64063 3.68444 8.05606 4.30031 7.94266L8.2023 7.22419Z" fill="white"/>
<path d="M11.5485 15.7279C11.4527 15.0993 10.8736 14.6688 10.2551 14.7662C9.63654 14.8636 9.21284 15.4521 9.3087 16.0807L10.0116 20.6892C10.1074 21.3178 10.6865 21.7483 11.3051 21.6509C11.9236 21.5535 12.3473 20.965 12.2514 20.3364L11.5485 15.7279Z" fill="white"/>
</g>
<defs>
<clipPath id="clip0_1075_68">
<rect width="16" height="21.3333" fill="white" transform="translate(0.5 0.333336)"/>
</clipPath>
</defs>
</svg>
