<svg width="98" height="98" viewBox="0 0 98 98" fill="none" xmlns="http://www.w3.org/2000/svg">
<path fill-rule="evenodd" clip-rule="evenodd" d="M81.6719 12.3584C91.1438 20.7602 96.9949 32.4972 98 45.1118L70.0014 47.3384C70.0167 47.3247 70.0322 47.3111 70.0479 47.2976C73.6291 44.2303 75.8366 39.9598 75.8165 35.2464C75.7699 24.8479 65.4863 17.4704 53.5289 18.5413C46.2597 19.1958 39.9175 22.3689 34.6223 26.441C18.9703 38.4856 18.9703 59.5207 34.6223 71.5587C39.9175 75.6309 46.2597 78.804 53.5289 79.4585C65.4863 80.5294 75.7699 73.1519 75.8165 62.7467C75.8365 58.0438 73.6389 53.7884 70.0717 50.7094L97.9921 52.9861C96.9617 65.5986 91.0871 77.3239 81.5984 85.7067C72.1096 94.0895 59.7426 98.4798 47.0868 97.9584C34.431 97.4369 22.4679 92.0441 13.7023 82.9091C4.93679 73.7741 0.0485889 61.6054 0.0612772 48.9509C0.0739578 36.2964 4.98654 24.1375 13.7704 15.0201C22.5542 5.90271 34.5282 0.533851 47.185 0.0377091C59.8418 -0.458433 72.2 3.95662 81.6719 12.3584Z" fill="white"/>
</svg>
