<svg width="104" height="37" viewBox="0 0 104 37" fill="none" xmlns="http://www.w3.org/2000/svg">
<path fill-rule="evenodd" clip-rule="evenodd" d="M29.9982 5.04242C33.4798 8.13073 35.6305 12.445 36 17.0818L25.7086 17.9003C25.7141 17.8952 25.7198 17.8903 25.7256 17.8853C27.0419 16.7579 27.8533 15.1881 27.846 13.4556C27.8288 9.63332 24.0488 6.92153 19.6535 7.31518C16.9816 7.55574 14.6503 8.7221 12.7039 10.2189C6.9506 14.6463 6.95059 22.3783 12.7039 26.8032C14.6503 28.3 16.9816 29.4664 19.6535 29.7069C24.0488 30.1006 27.8288 27.3888 27.846 23.5641C27.8533 21.8353 27.0455 20.2711 25.7342 19.1394L35.9971 19.9762C35.6183 24.6123 33.459 28.9222 29.9711 32.0036C26.4833 35.0849 21.9375 36.6987 17.2855 36.507C12.6335 36.3153 8.23614 34.333 5.01412 30.9752C1.79211 27.6174 -0.00467781 23.1445 -1.22306e-05 18.493C0.00464953 13.8415 1.8104 9.37216 5.03914 6.02081C8.26788 2.66946 12.6692 0.695987 17.3216 0.513617C21.9739 0.331246 26.5165 1.95412 29.9982 5.04242Z" fill="#FF2655"/>
<path d="M45.188 12.162H49.016V10.402H51.04V12.162H54.912V14.054H53.086C53.1593 14.2593 53.218 14.4793 53.262 14.714C53.306 14.934 53.3427 15.1687 53.372 15.418L54.714 27.144H52.69L51.502 15.858C51.458 15.506 51.4067 15.2127 51.348 14.978C51.304 14.7433 51.238 14.56 51.15 14.428C51.0767 14.296 50.9887 14.208 50.886 14.164C50.7833 14.1053 50.666 14.0687 50.534 14.054H49.5C49.368 14.0687 49.2507 14.1053 49.148 14.164C49.0453 14.208 48.95 14.296 48.862 14.428C48.7887 14.56 48.7227 14.7433 48.664 14.978C48.62 15.2127 48.5833 15.506 48.554 15.858L47.366 27.144H45.342L46.684 15.418C46.7573 14.9047 46.8453 14.45 46.948 14.054H45.188V12.162ZM54.45 17.662H56.584V11.282H58.608V27.144H56.584V19.598H54.45V17.662ZM62.128 11.062V27.364H60.104V11.062H62.128ZM81.9366 11.062V27.364H79.9126V11.062H81.9366ZM69.4626 26.924C68.6119 26.924 67.9226 26.8653 67.3946 26.748C66.8813 26.6453 66.4779 26.4473 66.1846 26.154C65.8913 25.8753 65.6933 25.4867 65.5906 24.988C65.4879 24.4747 65.4366 23.8147 65.4366 23.008V18.344H74.4566V13.394H65.4366V11.502H76.4806V20.236H67.4606V23.052C67.4606 23.448 67.4826 23.7707 67.5266 24.02C67.5706 24.2693 67.6586 24.4747 67.7906 24.636C67.9226 24.7827 68.1206 24.8853 68.3846 24.944C68.6486 25.0027 69.0006 25.032 69.4406 25.032H76.9206V26.924H69.4626ZM101.745 23.888C101.745 24.504 101.709 25.032 101.635 25.472C101.562 25.912 101.408 26.2713 101.173 26.55C100.953 26.8287 100.616 27.034 100.161 27.166C99.7212 27.298 99.1272 27.364 98.3792 27.364H89.4912C88.7432 27.364 88.1419 27.298 87.6872 27.166C87.2472 27.034 86.9099 26.8287 86.6752 26.55C86.4552 26.2713 86.3085 25.912 86.2352 25.472C86.1619 25.032 86.1252 24.504 86.1252 23.888V20.302H88.1492V22.062H99.7212V20.302H101.745V23.888ZM89.2712 19.444C88.4205 19.444 87.7312 19.3927 87.2032 19.29C86.6899 19.1727 86.2865 18.9747 85.9932 18.696C85.6999 18.4027 85.5019 18.0067 85.3992 17.508C85.2965 16.9947 85.2452 16.3347 85.2452 15.528V11.502H94.0892V15.528C94.0892 16.3347 94.0379 16.9947 93.9352 17.508C93.8325 18.0067 93.6345 18.4027 93.3412 18.696C93.0479 18.9747 92.6372 19.1727 92.1092 19.29C91.5959 19.3927 90.9139 19.444 90.0632 19.444H89.2712ZM97.5652 11.282V14.362H99.7212V11.062H101.745V19.884H99.7212V16.298H97.5652V19.664H95.5412V11.282H97.5652ZM90.0852 17.552C90.5252 17.552 90.8772 17.5227 91.1412 17.464C91.4052 17.4053 91.6032 17.3027 91.7352 17.156C91.8672 16.9947 91.9552 16.7893 91.9992 16.54C92.0432 16.2907 92.0652 15.968 92.0652 15.572V13.394H87.2692V15.572C87.2692 15.968 87.2912 16.2907 87.3352 16.54C87.3792 16.7893 87.4672 16.9947 87.5992 17.156C87.7312 17.3027 87.9292 17.4053 88.1932 17.464C88.4572 17.5227 88.8092 17.552 89.2492 17.552H90.0852ZM98.4012 25.472C98.6799 25.472 98.8999 25.45 99.0612 25.406C99.2372 25.362 99.3692 25.2813 99.4572 25.164C99.5599 25.0467 99.6259 24.9 99.6552 24.724C99.6992 24.5333 99.7212 24.2913 99.7212 23.998H88.1492C88.1492 24.2913 88.1639 24.5333 88.1932 24.724C88.2372 24.9 88.3032 25.0467 88.3912 25.164C88.4939 25.2813 88.6259 25.362 88.7872 25.406C88.9632 25.45 89.1905 25.472 89.4692 25.472H98.4012Z" fill="#FF2655"/>
</svg>
