<svg width="109" height="147" viewBox="0 0 109 147" fill="none" xmlns="http://www.w3.org/2000/svg">
<path d="M2.63656 113.84H9.59656V110.64H13.2766V113.84H20.3166V117.28H16.9966C17.1299 117.653 17.2366 118.053 17.3166 118.48C17.3966 118.88 17.4632 119.307 17.5166 119.76L19.9566 141.08H16.2766L14.1166 120.56C14.0366 119.92 13.9432 119.387 13.8366 118.96C13.7566 118.533 13.6366 118.2 13.4766 117.96C13.3432 117.72 13.1832 117.56 12.9966 117.48C12.8099 117.373 12.5966 117.307 12.3566 117.28H10.4766C10.2366 117.307 10.0232 117.373 9.83656 117.48C9.6499 117.56 9.47656 117.72 9.31656 117.96C9.18323 118.2 9.06323 118.533 8.95656 118.96C8.87656 119.387 8.8099 119.92 8.75656 120.56L6.59656 141.08H2.91656L5.35656 119.76C5.4899 118.827 5.6499 118 5.83656 117.28H2.63656V113.84ZM19.4766 123.84H23.3566V112.24H27.0366V141.08H23.3566V127.36H19.4766V123.84ZM33.4366 111.84V141.48H29.7566V111.84H33.4366ZM69.4522 111.84V141.48H65.7722V111.84H69.4522ZM46.7722 140.68C45.2255 140.68 43.9722 140.573 43.0122 140.36C42.0789 140.173 41.3455 139.813 40.8122 139.28C40.2789 138.773 39.9189 138.067 39.7322 137.16C39.5455 136.227 39.4522 135.027 39.4522 133.56V125.08H55.8522V116.08H39.4522V112.64H59.5322V128.52H43.1322V133.64C43.1322 134.36 43.1722 134.947 43.2522 135.4C43.3322 135.853 43.4922 136.227 43.7322 136.52C43.9722 136.787 44.3322 136.973 44.8122 137.08C45.2922 137.187 45.9322 137.24 46.7322 137.24H60.3322V140.68H46.7722ZM105.468 135.16C105.468 136.28 105.401 137.24 105.268 138.04C105.134 138.84 104.854 139.493 104.428 140C104.028 140.507 103.414 140.88 102.588 141.12C101.788 141.36 100.708 141.48 99.3478 141.48H83.1878C81.8278 141.48 80.7345 141.36 79.9078 141.12C79.1078 140.88 78.4945 140.507 78.0678 140C77.6678 139.493 77.4011 138.84 77.2678 138.04C77.1345 137.24 77.0678 136.28 77.0678 135.16V128.64H80.7478V131.84H101.788V128.64H105.468V135.16ZM82.7878 127.08C81.2411 127.08 79.9878 126.987 79.0278 126.8C78.0945 126.587 77.3611 126.227 76.8278 125.72C76.2945 125.187 75.9345 124.467 75.7478 123.56C75.5611 122.627 75.4678 121.427 75.4678 119.96V112.64H91.5478V119.96C91.5478 121.427 91.4545 122.627 91.2678 123.56C91.0811 124.467 90.7211 125.187 90.1878 125.72C89.6545 126.227 88.9078 126.587 87.9478 126.8C87.0145 126.987 85.7745 127.08 84.2278 127.08H82.7878ZM97.8678 112.24V117.84H101.788V111.84H105.468V127.88H101.788V121.36H97.8678V127.48H94.1878V112.24H97.8678ZM84.2678 123.64C85.0678 123.64 85.7078 123.587 86.1878 123.48C86.6678 123.373 87.0278 123.187 87.2678 122.92C87.5078 122.627 87.6678 122.253 87.7478 121.8C87.8278 121.347 87.8678 120.76 87.8678 120.04V116.08H79.1478V120.04C79.1478 120.76 79.1878 121.347 79.2678 121.8C79.3478 122.253 79.5078 122.627 79.7478 122.92C79.9878 123.187 80.3478 123.373 80.8278 123.48C81.3078 123.587 81.9478 123.64 82.7478 123.64H84.2678ZM99.3878 138.04C99.8945 138.04 100.294 138 100.588 137.92C100.908 137.84 101.148 137.693 101.308 137.48C101.494 137.267 101.614 137 101.668 136.68C101.748 136.333 101.788 135.893 101.788 135.36H80.7478C80.7478 135.893 80.7745 136.333 80.8278 136.68C80.9078 137 81.0278 137.267 81.1878 137.48C81.3745 137.693 81.6145 137.84 81.9078 137.92C82.2278 138 82.6411 138.04 83.1478 138.04H99.3878Z" fill="#FF2655"/>
<path fill-rule="evenodd" clip-rule="evenodd" d="M86.6719 12.3584C96.1438 20.7602 101.995 32.4972 103 45.1118L75.0015 47.3384C75.0167 47.3247 75.0322 47.3111 75.0479 47.2976C78.6291 44.2303 80.8366 39.9598 80.8165 35.2464C80.7699 24.8479 70.4863 17.4704 58.5289 18.5413C51.2597 19.1958 44.9175 22.3689 39.6223 26.441C23.9703 38.4856 23.9703 59.5207 39.6223 71.5587C44.9175 75.6309 51.2597 78.804 58.5289 79.4584C70.4863 80.5294 80.7699 73.1519 80.8165 62.7467C80.8365 58.0438 78.6389 53.7884 75.0717 50.7094L102.992 52.9861C101.962 65.5986 96.0871 77.3239 86.5984 85.7067C77.1096 94.0895 64.7426 98.4798 52.0868 97.9584C39.431 97.4369 27.4679 92.0441 18.7023 82.9091C9.93679 73.7741 5.04859 61.6054 5.06128 48.9509C5.07396 36.2964 9.98654 24.1375 18.7704 15.0201C27.5542 5.90271 39.5282 0.533851 52.185 0.0377091C64.8418 -0.458433 77.2 3.95662 86.6719 12.3584Z" fill="#FF2655"/>
</svg>
