<svg width="21" height="21" viewBox="0 0 21 21" fill="none" xmlns="http://www.w3.org/2000/svg">
<g clip-path="url(#clip0_557_1085)">
<path d="M9.5614 0C4.28056 0 0 4.28056 0 9.5614C0 14.8422 4.28056 19.1228 9.5614 19.1228C14.8422 19.1228 19.1228 14.8422 19.1228 9.5614C19.1228 4.28056 14.8403 0 9.5614 0ZM9.5614 17.209C5.33673 17.209 1.91382 13.7841 1.91382 9.5614C1.91382 5.33866 5.33673 1.91189 9.5614 1.91189C13.7861 1.91189 17.2109 5.33673 17.2109 9.5614C17.2109 13.7861 13.7861 17.209 9.5614 17.209Z" fill="#FF2655"/>
<path d="M17.2035 15.6585C16.7767 15.2317 16.0848 15.2317 15.6581 15.6585C15.2313 16.0852 15.2313 16.7771 15.6581 17.2039L19.1346 20.6804C19.5614 21.1072 20.2533 21.1072 20.68 20.6804C21.1068 20.2537 21.1068 19.5618 20.68 19.135L17.2035 15.6585Z" fill="#FF2655"/>
</g>
<defs>
<clipPath id="clip0_557_1085">
<rect width="21" height="21" fill="white"/>
</clipPath>
</defs>
</svg>
