<svg width="144" height="192" viewBox="0 0 144 192" fill="none" xmlns="http://www.w3.org/2000/svg">
<path d="M25.4437 175.375V179.078H27.5375V180.125H25.4437V183.75H24.225V175.375H25.4437ZM14.6156 177.875V176.859H18.1469V175.266H19.3656V176.859H22.8969V177.875H14.6156ZM15.4125 181.031C15.4047 179.547 16.7406 178.562 18.7562 178.562C20.7484 178.562 22.0844 179.547 22.1 181.031C22.0844 182.539 20.7484 183.516 18.7562 183.516C16.7406 183.516 15.4047 182.539 15.4125 181.031ZM16.5844 181.031C16.5766 181.977 17.4437 182.562 18.7562 182.578C20.0531 182.562 20.9281 181.977 20.9437 181.031C20.9281 180.125 20.0531 179.516 18.7562 179.516C17.4437 179.516 16.5766 180.125 16.5844 181.031ZM16.6781 189.078V184.547H25.4437V189.078H16.6781ZM17.8812 188.078H24.225V185.531H17.8812V188.078ZM31.5656 177.062C31.55 179.977 31.1437 183.258 29.1125 185.953L28.1437 185.391C29.8781 183.219 30.3937 180.633 30.4953 178.078H28.425V177.062H31.5656ZM31.2687 186.297C33.1828 183.844 33.5187 180.672 33.5734 178.078H32.0031V177.062H34.6437C34.6437 178.195 34.6125 179.5 34.4406 180.844H36.2844V175.75H37.4562V188.562H36.2844V181.859H34.2766C33.9562 183.594 33.3547 185.352 32.2219 186.875L31.2687 186.297ZM38.8781 189.266V175.375H40.0656V189.266H38.8781ZM56.8719 175.375V182.516H55.6375V179.75H52.5594V178.734H55.6375V175.375H56.8719ZM45.575 181.797C48.9031 180.992 50.9031 179.312 51.1453 177.078H46.2937V176.062H52.45C52.45 179.516 50.0125 181.805 46.0125 182.812L45.575 181.797ZM47.8719 184.109V183.109H56.8719V186.5H49.1219V188.125H57.3406V189.141H47.9031V185.562H55.6375V184.109H47.8719ZM62.6187 176.453C64.5094 176.461 65.8766 178.086 66.0641 180.688H69.1812V175.375H70.4V189.297H69.1812V181.703H66.0797C65.9469 184.43 64.5562 186.133 62.6187 186.125C60.5641 186.133 59.1266 184.258 59.1344 181.297C59.1266 178.344 60.5641 176.461 62.6187 176.453ZM60.3062 181.297C60.3141 183.555 61.2516 185.039 62.6187 185.031C63.9781 185.039 64.9312 183.555 64.9312 181.297C64.9312 179.039 63.9781 177.555 62.6187 177.547C61.2516 177.555 60.3141 179.039 60.3062 181.297ZM83.1625 175.375V181.031H85.4125V182.062H83.1625V189.266H81.9437V175.375H83.1625ZM72.5062 185.656C76.0922 183.875 78.0453 181.195 78.3266 177.906H73.1469V176.875H79.5687C79.5609 180.805 77.7172 184.391 73.1937 186.625L72.5062 185.656ZM97.175 179.594V180.578H87.6594V175.891H88.8781V179.594H97.175ZM85.925 183.469V182.469H98.6437V183.469H85.925ZM87.5812 188.922V184.891H88.8V187.906H97.2531V188.922H87.5812ZM108.153 179.641C108.161 182 109.872 184.398 111.919 185.281L111.231 186.25C109.606 185.516 108.208 183.914 107.559 181.992C106.911 184.031 105.505 185.797 103.919 186.594L103.184 185.625C105.177 184.672 106.911 182.047 106.919 179.641V177.828H103.637V176.812H111.466V177.828H108.153V179.641ZM113.403 189.266V175.375H114.637V189.266H113.403ZM127.931 181.891V182.891H123.634V186.484H129.431V187.516H116.713V186.484H122.431V182.891H118.338V176.516H127.791V177.516H119.572V181.891H127.931Z" fill="white"/>
<path d="M2.862 128.663H12.084V124.423H16.96V128.663H26.288V133.221H21.889C22.0657 133.716 22.207 134.246 22.313 134.811C22.419 135.341 22.5073 135.906 22.578 136.507L25.811 164.756H20.935L18.073 137.567C17.967 136.719 17.8433 136.012 17.702 135.447C17.596 134.882 17.437 134.44 17.225 134.122C17.0483 133.804 16.8363 133.592 16.589 133.486C16.3417 133.345 16.059 133.256 15.741 133.221H13.25C12.932 133.256 12.6493 133.345 12.402 133.486C12.1547 133.592 11.925 133.804 11.713 134.122C11.5363 134.44 11.3773 134.882 11.236 135.447C11.13 136.012 11.0417 136.719 10.971 137.567L8.109 164.756H3.233L6.466 136.507C6.64267 135.27 6.85467 134.175 7.102 133.221H2.862V128.663ZM25.175 141.913H30.316V126.543H35.192V164.756H30.316V146.577H25.175V141.913ZM43.672 126.013V165.286H38.796V126.013H43.672ZM91.3927 126.013V165.286H86.5167V126.013H91.3927ZM61.3417 164.226C59.2924 164.226 57.6317 164.085 56.3597 163.802C55.123 163.555 54.1514 163.078 53.4447 162.371C52.738 161.7 52.261 160.763 52.0137 159.562C51.7664 158.325 51.6427 156.735 51.6427 154.792V143.556H73.3727V131.631H51.6427V127.073H78.2487V148.114H56.5187V154.898C56.5187 155.852 56.5717 156.629 56.6777 157.23C56.7837 157.831 56.9957 158.325 57.3137 158.714C57.6317 159.067 58.1087 159.315 58.7447 159.456C59.3807 159.597 60.2287 159.668 61.2887 159.668H79.3087V164.226H61.3417ZM139.113 156.912C139.113 158.396 139.025 159.668 138.848 160.728C138.672 161.788 138.301 162.654 137.735 163.325C137.205 163.996 136.393 164.491 135.297 164.809C134.237 165.127 132.806 165.286 131.004 165.286H109.592C107.79 165.286 106.342 165.127 105.246 164.809C104.186 164.491 103.374 163.996 102.808 163.325C102.278 162.654 101.925 161.788 101.748 160.728C101.572 159.668 101.483 158.396 101.483 156.912V148.273H106.359V152.513H134.237V148.273H139.113V156.912ZM109.062 146.206C107.013 146.206 105.352 146.082 104.08 145.835C102.844 145.552 101.872 145.075 101.165 144.404C100.459 143.697 99.9817 142.743 99.7344 141.542C99.4871 140.305 99.3634 138.715 99.3634 136.772V127.073H120.669V136.772C120.669 138.715 120.546 140.305 120.298 141.542C120.051 142.743 119.574 143.697 118.867 144.404C118.161 145.075 117.171 145.552 115.899 145.835C114.663 146.082 113.02 146.206 110.97 146.206H109.062ZM129.043 126.543V133.963H134.237V126.013H139.113V147.266H134.237V138.627H129.043V146.736H124.167V126.543H129.043ZM111.023 141.648C112.083 141.648 112.931 141.577 113.567 141.436C114.203 141.295 114.68 141.047 114.998 140.694C115.316 140.305 115.528 139.811 115.634 139.21C115.74 138.609 115.793 137.832 115.793 136.878V131.631H104.239V136.878C104.239 137.832 104.292 138.609 104.398 139.21C104.504 139.811 104.716 140.305 105.034 140.694C105.352 141.047 105.829 141.295 106.465 141.436C107.101 141.577 107.949 141.648 109.009 141.648H111.023ZM131.057 160.728C131.729 160.728 132.259 160.675 132.647 160.569C133.071 160.463 133.389 160.269 133.601 159.986C133.849 159.703 134.008 159.35 134.078 158.926C134.184 158.467 134.237 157.884 134.237 157.177H106.359C106.359 157.884 106.395 158.467 106.465 158.926C106.571 159.35 106.73 159.703 106.942 159.986C107.19 160.269 107.508 160.463 107.896 160.569C108.32 160.675 108.868 160.728 109.539 160.728H131.057Z" fill="white"/>
<path fill-rule="evenodd" clip-rule="evenodd" d="M104.672 12.3584C114.144 20.7602 119.995 32.4972 121 45.1118L93.0014 47.3384C93.0167 47.3247 93.0322 47.3111 93.0479 47.2976C96.6291 44.2303 98.8366 39.9598 98.8165 35.2464C98.7699 24.8479 88.4863 17.4704 76.5289 18.5413C69.2597 19.1958 62.9175 22.3689 57.6223 26.441C41.9703 38.4856 41.9703 59.5207 57.6223 71.5587C62.9175 75.6309 69.2597 78.804 76.5289 79.4585C88.4863 80.5294 98.7699 73.1519 98.8165 62.7467C98.8365 58.0438 96.6389 53.7884 93.0717 50.7094L120.992 52.9861C119.962 65.5986 114.087 77.3239 104.598 85.7067C95.1096 94.0895 82.7426 98.4798 70.0868 97.9584C57.431 97.4369 45.4679 92.0441 36.7023 82.9091C27.9368 73.7741 23.0486 61.6054 23.0613 48.9509C23.074 36.2964 27.9865 24.1375 36.7704 15.0201C45.5542 5.90271 57.5282 0.533851 70.185 0.0377091C82.8418 -0.458433 95.2 3.95662 104.672 12.3584Z" fill="white"/>
</svg>
