<svg width="355" height="406" viewBox="0 0 355 406" fill="none" xmlns="http://www.w3.org/2000/svg">
<path fill-rule="evenodd" clip-rule="evenodd" d="M184.614 0H143C137.477 0 133 4.47715 133 10V91H208.998L184.614 0ZM133 158V103H244.92C242.614 112.301 241.087 126.49 248.236 138.5C253.978 148.148 254.122 159.203 252.761 168H143C137.477 168 133 163.523 133 158ZM264.319 168H345C350.523 168 355 163.523 355 158V103H256.313C254.006 112.184 252.526 126.194 259.707 138.5C265.46 148.359 265.655 159.312 264.319 168ZM355 10V91H221.421L211.507 54H336V53V42V0H345C350.523 0 355 4.47715 355 10ZM324 0H197.038L208.291 42H324V0Z" fill="url(#paint0_linear_1185_2219)"/>
<circle cx="240.5" cy="98.5" r="26.5" fill="#FF2655" fill-opacity="0.3"/>
<g clip-path="url(#clip0_1185_2219)">
<path d="M241.839 61.9998C232.198 61.7941 224.935 70.1436 226.131 79.3119C227.36 88.7666 235.431 95.5511 239.351 98.3343C240.61 99.2257 242.332 99.2257 243.574 98.3141C247.809 95.2244 257 87.3186 257 76.8635C257 68.7682 250.247 62.1854 241.839 61.9998ZM242.138 81.6554C238.841 82.0548 236.067 79.3966 236.479 76.2383C236.762 74.0844 238.576 72.3459 240.824 72.0757C244.121 71.6764 246.896 74.3345 246.483 77.4928C246.201 79.6467 244.386 81.3852 242.138 81.6554Z" fill="#FF2655"/>
</g>
<circle cx="241.5" cy="77.5" r="5.5" fill="white"/>
<path d="M355 97H241" stroke="#FF2655" stroke-width="4"/>
<circle cx="198.5" cy="48.5" r="5.5" fill="#636875"/>
<circle cx="311.5" cy="23.5" r="5.5" fill="#636875"/>
<circle cx="246.5" cy="137.5" r="5.5" fill="#636875"/>
<path d="M51.0534 252.35L56.8933 181.299C56.9471 180.643 57.6078 180.217 58.2268 180.439L171.707 221.037C172.346 221.266 172.576 222.051 172.163 222.589L163.098 234.372C163.033 234.457 162.955 234.531 162.866 234.59L98.5033 278.159C98.1941 278.369 97.794 278.388 97.4658 278.21L51.5732 253.311C51.2248 253.122 51.021 252.745 51.0534 252.35Z" fill="url(#paint1_linear_1185_2219)"/>
<path d="M180.357 128.283C178.38 122.181 171.832 118.837 165.73 120.814L148.734 126.32C143.571 127.992 140.742 133.533 142.414 138.696L143.516 142.095C145.188 147.258 150.729 150.087 155.892 148.415L172.888 142.909C178.989 140.932 182.333 134.384 180.357 128.283Z" fill="url(#paint2_linear_1185_2219)"/>
<rect x="63" y="93" width="99" height="153" rx="10" fill="#41424B"/>
<rect x="67" y="98" width="90" height="143" rx="6" fill="#F3F4FF"/>
<rect x="93.5" y="188.5" width="58" height="29" rx="4.5" fill="white" stroke="#A7A9B5"/>
<rect x="89.5" y="115.5" width="58" height="29" rx="4.5" fill="white" stroke="#A7A9B5"/>
<rect x="74.5" y="151.5" width="58" height="30" rx="4.5" fill="#FFF3F6" stroke="#FF93AA"/>
<path d="M135 167.5C135 161.149 140.149 156 146.5 156H171C176.523 156 181 160.477 181 166V169C181 174.523 176.523 179 171 179H146.5C140.149 179 135 173.851 135 167.5Z" fill="url(#paint3_linear_1185_2219)"/>
<rect x="59.0623" y="154.39" width="22.4711" height="25.6643" rx="11.2355" transform="rotate(20.6773 59.0623 154.39)" fill="url(#paint4_linear_1185_2219)"/>
<path d="M138 189.5C138 183.149 143.149 178 149.5 178H168C173.523 178 178 182.477 178 188V191C178 196.523 173.523 201 168 201H149.5C143.149 201 138 195.851 138 189.5Z" fill="url(#paint5_linear_1185_2219)"/>
<path d="M142 213C142 206.373 147.373 201 154 201H166.75C171.306 201 175 204.694 175 209.25V216.75C175 221.306 171.306 225 166.75 225H154C147.373 225 142 219.627 142 213Z" fill="url(#paint6_linear_1185_2219)"/>
<line x1="97" y1="123.5" x2="137" y2="123.5" stroke="#D4D4D4"/>
<line x1="100" y1="197.5" x2="140" y2="197.5" stroke="#D4D4D4"/>
<line x1="97" y1="136.5" x2="137" y2="136.5" stroke="#D4D4D4"/>
<line x1="97" y1="128.5" x2="131" y2="128.5" stroke="#D4D4D4"/>
<line x1="106" y1="204.5" x2="140" y2="204.5" stroke="#D4D4D4"/>
<path d="M128.064 93H97.9361C96.526 93 95.5587 94.4201 96.075 95.7322L98.0422 100.732C98.3431 101.497 99.0814 102 99.9033 102H126.097C126.919 102 127.657 101.497 127.958 100.732L129.925 95.7322C130.441 94.4201 129.474 93 128.064 93Z" fill="#41424B"/>
<path d="M99 277.5L51 251L0 277.5V406L99 277.5Z" fill="#FF85A0"/>
<defs>
<linearGradient id="paint0_linear_1185_2219" x1="188" y1="84" x2="428" y2="84" gradientUnits="userSpaceOnUse">
<stop stop-color="#F8E8EC"/>
<stop offset="1" stop-color="#F5DCE1"/>
</linearGradient>
<linearGradient id="paint1_linear_1185_2219" x1="53.5" y1="222" x2="155" y2="260.5" gradientUnits="userSpaceOnUse">
<stop stop-color="#FFD0AE"/>
<stop offset="1" stop-color="#FDA681"/>
</linearGradient>
<linearGradient id="paint2_linear_1185_2219" x1="180.709" y1="129.369" x2="146.716" y2="121.526" gradientUnits="userSpaceOnUse">
<stop stop-color="#FFD0AE"/>
<stop offset="1" stop-color="#FDA681"/>
</linearGradient>
<linearGradient id="paint3_linear_1185_2219" x1="181" y1="167.5" x2="135" y2="167.5" gradientUnits="userSpaceOnUse">
<stop stop-color="#FFD0AE"/>
<stop offset="1" stop-color="#FFBB9E"/>
</linearGradient>
<linearGradient id="paint4_linear_1185_2219" x1="59.0623" y1="166.581" x2="88.9143" y2="164.44" gradientUnits="userSpaceOnUse">
<stop stop-color="#FFD0AE"/>
<stop offset="1" stop-color="#FDA681"/>
</linearGradient>
<linearGradient id="paint5_linear_1185_2219" x1="178" y1="189.5" x2="138" y2="189.5" gradientUnits="userSpaceOnUse">
<stop stop-color="#FFD0AE"/>
<stop offset="1" stop-color="#FFBB9E"/>
</linearGradient>
<linearGradient id="paint6_linear_1185_2219" x1="175" y1="213" x2="142" y2="213" gradientUnits="userSpaceOnUse">
<stop stop-color="#FFD0AE"/>
<stop offset="1" stop-color="#FFBB9E"/>
</linearGradient>
<clipPath id="clip0_1185_2219">
<rect width="31" height="37" fill="white" transform="translate(226 62)"/>
</clipPath>
</defs>
</svg>
