<svg width="338" height="364" viewBox="0 0 338 364" fill="none" xmlns="http://www.w3.org/2000/svg">
<ellipse cx="131" cy="102" rx="131" ry="102" fill="#F8E8EC"/>
<path d="M180.5 237C141.673 225.453 121.33 215.52 114 194L160.414 194C152.822 212.844 160.105 222.236 180.5 237Z" fill="#F8E8EC"/>
<line x1="60" y1="56.5" x2="177" y2="56.5" stroke="#FFCCD9" stroke-width="3"/>
<line x1="41" y1="81.5" x2="196" y2="81.5" stroke="#FFCCD9" stroke-width="3"/>
<line x1="41" y1="100.5" x2="171" y2="100.5" stroke="#FFCCD9" stroke-width="3"/>
<path d="M306.361 163.085C306.361 201.565 280.024 206.058 247.535 206.058C215.046 206.058 188.708 201.565 188.708 163.085C195.528 126.233 217.123 98.4961 247.535 98C278.121 99.5068 301.752 128.254 306.361 163.085Z" fill="#D34E6A"/>
<path d="M305.527 209.389C305.527 251.229 280.024 238.422 247.535 238.422C215.046 238.422 191.211 251.229 191.211 209.389C191.211 167.55 215.046 115.94 247.535 115.94C280.024 115.94 305.527 167.55 305.527 209.389Z" fill="url(#paint0_linear_1185_2220)"/>
<path d="M178.953 257.157C182.384 242.124 196.646 232.265 212.009 233.583C239.429 235.936 260.214 235.557 285.762 233.388C301.281 232.071 315.477 242.412 318.475 257.696L330.218 317.558C333.853 336.091 319.665 353.333 300.779 353.333H194.619C175.356 353.333 161.085 335.437 165.371 316.657L178.953 257.157Z" fill="#8A4F4B"/>
<rect x="231.263" y="208.561" width="31.708" height="25.0326" fill="#FFDACD"/>
<path d="M245.449 206.892H262.972V222.329L245.449 214.819V206.892Z" fill="#F0A184"/>
<circle cx="211.655" cy="174.35" r="11.2647" fill="#FFDACD"/>
<circle cx="284.249" cy="174.35" r="11.2647" fill="#FFDACD"/>
<path d="M285.084 159.577C285.084 185.966 268.964 214.819 247.535 214.819C226.106 214.819 210.403 185.966 210.403 159.577C225.111 146.203 249.295 127.204 247.535 122.627C245.774 118.049 282.887 136.233 285.084 159.577Z" fill="#FFDACD"/>
<ellipse cx="231.681" cy="163.502" rx="4.58932" ry="5.00653" fill="black"/>
<path fill-rule="evenodd" clip-rule="evenodd" d="M249.301 180.971C248.381 179.985 247.952 178.337 247.952 176.853C247.952 175.443 248.027 173.884 248.612 172.886C246.776 173.431 245.449 175.001 245.449 176.853C245.449 178.929 247.117 180.651 249.301 180.971Z" fill="#F0A184"/>
<ellipse cx="263.389" cy="163.502" rx="4.58932" ry="5.00653" fill="black"/>
<path fill-rule="evenodd" clip-rule="evenodd" d="M238.902 191.038C237.672 191.038 236.768 192.179 237.542 193.134C239.331 195.345 243.265 196.879 247.83 196.879C252.395 196.879 256.329 195.345 258.118 193.134C258.892 192.179 257.988 191.038 256.758 191.038H238.902Z" fill="#EA8975"/>
<path d="M225.423 151.793C225.423 151.307 225.722 150.868 226.18 150.706C229.822 149.418 232.265 149.428 236.315 150.724C236.788 150.875 237.105 151.32 237.105 151.817C237.105 152.627 236.297 153.186 235.523 152.944C232.453 151.984 230.198 151.945 227.026 152.934C226.243 153.178 225.423 152.613 225.423 151.793Z" fill="#94624C"/>
<path d="M257.131 152.198C257.131 151.712 257.43 151.274 257.888 151.111C261.53 149.823 263.973 149.834 268.023 151.129C268.496 151.281 268.813 151.725 268.813 152.222C268.813 153.032 268.005 153.591 267.231 153.35C264.161 152.39 261.906 152.35 258.734 153.339C257.951 153.583 257.131 153.018 257.131 152.198Z" fill="#94624C"/>
<path d="M282.163 233.593C282.61 248.642 214.181 248.721 213.741 233.593C213.894 231.93 229.231 229.221 247.952 226.918C266.128 230.085 281.615 232.315 282.163 233.593Z" fill="#FFDACD"/>
<path d="M224.221 289.083L235.899 302.389L191.516 354.442C171.074 358.799 166.276 354.051 169.07 333.085L224.221 289.083Z" fill="url(#paint1_linear_1185_2220)"/>
<path d="M266.791 289.072L256.223 303.277L305.518 352.352C326.477 355.254 330.883 350.14 326.206 329.285L266.791 289.072Z" fill="url(#paint2_linear_1185_2220)"/>
<path d="M261.72 271.977L267.144 289.366L256.296 303.268L244.614 297.37L241.277 285.575C241.468 278.571 234.211 274.376 246.283 267.805L254.21 267.387L261.72 271.977Z" fill="#FFDACD"/>
<rect x="227.926" y="270.308" width="39.2178" height="4.17211" fill="#7E838C"/>
<path d="M227.926 274.48H267.144L255.879 293.254H238.773L227.926 274.48Z" fill="#BFC4CC"/>
<path d="M230.846 279.904L222.919 290.334L225.005 298.678L235.853 302.433L254.627 298.678L259.634 292.003C262.162 289.572 268.857 285.419 267.978 281.99C265.223 278.181 265.057 278.235 265.057 278.235C265.057 278.235 243.254 287.89 235.853 287.831L230.846 279.904Z" fill="url(#paint3_linear_1185_2220)"/>
<defs>
<linearGradient id="paint0_linear_1185_2220" x1="248.369" y1="178.104" x2="248.369" y2="243.189" gradientUnits="userSpaceOnUse">
<stop stop-color="#D34E6A"/>
<stop offset="1" stop-color="#FCB8A2"/>
</linearGradient>
<linearGradient id="paint1_linear_1185_2220" x1="226.296" y1="302.413" x2="177.975" y2="297.195" gradientUnits="userSpaceOnUse">
<stop stop-color="#FFDACD"/>
<stop offset="1" stop-color="#FFC6B1"/>
</linearGradient>
<linearGradient id="paint2_linear_1185_2220" x1="329.856" y1="352.6" x2="310.055" y2="297.898" gradientUnits="userSpaceOnUse">
<stop stop-color="#FFC7B3"/>
<stop offset="1" stop-color="#FFDACD"/>
</linearGradient>
<linearGradient id="paint3_linear_1185_2220" x1="245.488" y1="300.347" x2="254.627" y2="271.142" gradientUnits="userSpaceOnUse">
<stop stop-color="#FFDACD"/>
<stop offset="1" stop-color="#FFB499"/>
</linearGradient>
</defs>
</svg>
