<svg width="207" height="60" viewBox="0 0 207 60" fill="none" xmlns="http://www.w3.org/2000/svg">
<path d="M8.375 18.0312V20.875H21.2188V18.0312H24.1562V28.3125H5.40625V18.0312H8.375ZM1.0625 12.75C6.34375 12.7656 13.3125 12.7656 19.4062 11.9688L19.5938 14.0938C17.1875 14.5 14.6875 14.75 12.25 14.9062V18.8125H9.3125V15.0625C6.48438 15.1719 3.79688 15.1875 1.4375 15.1875L1.0625 12.75ZM2.21875 8.9375C6.4375 8 8.98438 5.51562 9 2.65625V1.34375H12.0312V2.65625C12.0312 5.35938 14.625 7.6875 18.7812 8.5625L17.4688 10.7812C14.2188 10.0781 11.7812 8.45312 10.5469 6.21875C9.34375 8.625 6.89062 10.4375 3.5625 11.25L2.21875 8.9375ZM8.375 25.9062H21.2188V23.1562H8.375V25.9062ZM21.1875 16.75V0.6875H24.1562V16.75H21.1875ZM51.0438 3.34375V6.09375C51.0281 9.54688 51.0281 13.4219 49.9813 19.1562L46.9813 18.8438C48.0594 13.4219 48.0594 9.45312 48.075 6.09375V5.75H31.075V3.34375H51.0438ZM28.3875 24.875V22.4062H38.1063V12.5312H41.0438V22.4062H53.9188V24.875H28.3875ZM85.9437 0.65625V11.4062H89.4437V13.9062H85.9437V28.6562H83.0062V0.65625H85.9437ZM63.725 21.9688V3.21875H66.1937V10.2188H69.1625V3.21875H71.6312V21.9688H63.725ZM66.1937 19.5H69.1625V12.5938H66.1937V19.5ZM73.0062 21.9688V3.21875H75.475V10.2188H78.3812V3.21875H80.85V21.9688H73.0062ZM75.475 19.5H78.3812V12.5938H75.475V19.5ZM116.206 16.0312V18.4375H90.5813V16.0312H116.206ZM93.8 3.84375V1.5H112.988V8.6875H96.8V11.4375H113.55V13.7188H93.8625V6.53125H110.019V3.84375H93.8ZM93.925 28.0625V20.4375H96.8938V25.6562H113.581V28.0625H93.925ZM148.825 0.6875V17.25H145.856V13.8438H138.794V11.4062H145.856V8H139.091C137.278 12.5 133.075 15.6719 127.012 17.4062L125.825 15.0938C132.45 13.2031 136.325 9.64062 136.856 5.125H127.262V2.6875H140.075C140.075 3.71875 139.966 4.71875 139.778 5.65625H145.856V0.6875H148.825ZM130.169 23.0312C130.169 19.6406 133.856 17.5781 139.606 17.5625C145.278 17.5781 148.997 19.6406 149.012 23.0312C148.997 26.4375 145.278 28.5312 139.606 28.5312C133.856 28.5312 130.169 26.4375 130.169 23.0312ZM133.106 23.0312C133.106 25 135.606 26.1406 139.606 26.1562C143.528 26.1406 146.028 25 146.044 23.0312C146.028 21.0312 143.528 19.8906 139.606 19.9062C135.606 19.8906 133.106 21.0312 133.106 23.0312ZM178.462 22.8125V25.3125H152.837V22.8125H164.119V17.9062H155.962V9H172.4V5.0625H155.9V2.625H175.337V11.375H158.9V15.4688H175.994V17.9062H167.056V22.8125H178.462ZM194.381 3.125V16.1875H181.288V3.125H194.381ZM184.194 13.8438H191.475V5.53125H184.194V13.8438ZM184.444 28.0625V19.1875H187.413V25.6562H203.381V28.0625H184.444ZM199.225 21.1562V0.625H202.194V9H206.256V11.5H202.194V21.1562H199.225Z" fill="black"/>
<path d="M15.872 44.88V47.248H27.84V50.064H0.96V47.248H12.928V44.88H15.872ZM3.52 51.632H20.384C21.472 51.632 22.336 51.728 22.976 51.92C23.6373 52.112 24.128 52.4107 24.448 52.816C24.7893 53.2213 25.0133 53.744 25.12 54.384C25.2267 55.024 25.28 55.792 25.28 56.688V59.984H22.336V56.848C22.336 56.3787 22.3147 55.984 22.272 55.664C22.2293 55.344 22.144 55.088 22.016 54.896C21.888 54.704 21.696 54.576 21.44 54.512C21.184 54.4267 20.8427 54.384 20.416 54.384H3.52V51.632ZM17.088 39.664C16.768 39.664 16.5013 39.6853 16.288 39.728C16.096 39.7707 15.904 39.8667 15.712 40.016C15.52 40.144 15.3173 40.3467 15.104 40.624C14.8907 40.88 14.624 41.2213 14.304 41.648L11.2 45.904H8.096L11.52 41.008C12.096 40.1973 12.5973 39.5253 13.024 38.992C13.4507 38.4587 13.8667 38.0427 14.272 37.744C14.6987 37.424 15.1253 37.2107 15.552 37.104C16 36.976 16.512 36.912 17.088 36.912H18.4C18.976 36.912 19.4773 36.976 19.904 37.104C20.352 37.2107 20.7787 37.424 21.184 37.744C21.6107 38.0427 22.0373 38.4587 22.464 38.992C22.8907 39.5253 23.392 40.1973 23.968 41.008L27.392 45.904H24.288L21.184 41.648C20.864 41.2213 20.5973 40.88 20.384 40.624C20.1707 40.3467 19.968 40.144 19.776 40.016C19.584 39.8667 19.3813 39.7707 19.168 39.728C18.976 39.6853 18.72 39.664 18.4 39.664H17.088ZM4.48 45.904H1.376L4.8 41.008C5.376 40.176 5.888 39.504 6.336 38.992C6.80533 38.4587 7.296 38.0427 7.808 37.744C8.32 37.424 8.896 37.2107 9.536 37.104C10.1973 36.976 10.9973 36.912 11.936 36.912H11.968V39.664H11.904C11.3067 39.664 10.8053 39.6853 10.4 39.728C9.99467 39.7707 9.632 39.856 9.312 39.984C9.01333 40.112 8.72533 40.3147 8.448 40.592C8.192 40.848 7.904 41.2 7.584 41.648L4.48 45.904ZM44.3845 44.88V47.248H56.3525V50.064H29.4725V47.248H41.4405V44.88H44.3845ZM32.0325 51.632H48.8965C49.9845 51.632 50.8485 51.728 51.4885 51.92C52.1498 52.112 52.6405 52.4107 52.9605 52.816C53.3018 53.2213 53.5258 53.744 53.6325 54.384C53.7392 55.024 53.7925 55.792 53.7925 56.688V59.984H50.8485V56.848C50.8485 56.3787 50.8272 55.984 50.7845 55.664C50.7418 55.344 50.6565 55.088 50.5285 54.896C50.4005 54.704 50.2085 54.576 49.9525 54.512C49.6965 54.4267 49.3552 54.384 48.9285 54.384H32.0325V51.632ZM45.6005 39.664C45.2805 39.664 45.0138 39.6853 44.8005 39.728C44.6085 39.7707 44.4165 39.8667 44.2245 40.016C44.0325 40.144 43.8298 40.3467 43.6165 40.624C43.4032 40.88 43.1365 41.2213 42.8165 41.648L39.7125 45.904H36.6085L40.0325 41.008C40.6085 40.1973 41.1098 39.5253 41.5365 38.992C41.9632 38.4587 42.3792 38.0427 42.7845 37.744C43.2112 37.424 43.6378 37.2107 44.0645 37.104C44.5125 36.976 45.0245 36.912 45.6005 36.912H46.9125C47.4885 36.912 47.9898 36.976 48.4165 37.104C48.8645 37.2107 49.2912 37.424 49.6965 37.744C50.1232 38.0427 50.5498 38.4587 50.9765 38.992C51.4032 39.5253 51.9045 40.1973 52.4805 41.008L55.9045 45.904H52.8005L49.6965 41.648C49.3765 41.2213 49.1098 40.88 48.8965 40.624C48.6832 40.3467 48.4805 40.144 48.2885 40.016C48.0965 39.8667 47.8938 39.7707 47.6805 39.728C47.4885 39.6853 47.2325 39.664 46.9125 39.664H45.6005ZM32.9925 45.904H29.8885L33.3125 41.008C33.8885 40.176 34.4005 39.504 34.8485 38.992C35.3178 38.4587 35.8085 38.0427 36.3205 37.744C36.8325 37.424 37.4085 37.2107 38.0485 37.104C38.7098 36.976 39.5098 36.912 40.4485 36.912H40.4805V39.664H40.4165C39.8192 39.664 39.3178 39.6853 38.9125 39.728C38.5072 39.7707 38.1445 39.856 37.8245 39.984C37.5258 40.112 37.2378 40.3147 36.9605 40.592C36.7045 40.848 36.4165 41.2 36.0965 41.648L32.9925 45.904ZM70.4297 50.928V58.16H67.4857V37.872H79.0377C81.1071 37.872 82.6751 38.4587 83.7417 39.632C84.8297 40.8053 85.3737 42.3947 85.3737 44.4C85.3737 46.4053 84.8297 47.9947 83.7417 49.168C82.6751 50.3413 81.1071 50.928 79.0377 50.928H70.4297ZM79.2617 48.112C79.9231 48.112 80.4564 48.0267 80.8617 47.856C81.2884 47.664 81.6191 47.408 81.8537 47.088C82.0884 46.7467 82.2484 46.352 82.3337 45.904C82.4404 45.4347 82.4937 44.9333 82.4937 44.4C82.4937 43.8667 82.4404 43.376 82.3337 42.928C82.2484 42.4587 82.0884 42.064 81.8537 41.744C81.6191 41.4027 81.2884 41.1467 80.8617 40.976C80.4564 40.784 79.9231 40.688 79.2617 40.688H70.4297V48.112H79.2617ZM87.9023 37.872H90.8783V58.16H87.9023V37.872ZM96.3445 48.144C96.3445 49.4027 96.4512 50.4907 96.6645 51.408C96.8778 52.3253 97.2298 53.0827 97.7205 53.68C98.2112 54.256 98.8512 54.6933 99.6405 54.992C100.451 55.2693 101.454 55.408 102.649 55.408H110.873V58.16H102.937C101.251 58.16 99.8005 57.968 98.5845 57.584C97.3898 57.1787 96.4085 56.5707 95.6405 55.76C94.8725 54.9493 94.3072 53.9147 93.9445 52.656C93.5818 51.376 93.4005 49.872 93.4005 48.144C93.4005 44.6667 94.1472 42.0853 95.6405 40.4C97.1338 38.7147 99.5658 37.872 102.937 37.872H110.873V40.624H102.649C101.454 40.624 100.451 40.784 99.6405 41.104C98.8512 41.4027 98.2112 41.872 97.7205 42.512C97.2298 43.1307 96.8778 43.9093 96.6645 44.848C96.4512 45.7867 96.3445 46.8853 96.3445 48.144ZM113.461 37.872H116.405V49.424L126.101 37.872H129.877L121.429 47.888L130.613 58.16H126.581L119.445 50.256L116.405 53.904V58.16H113.461V37.872Z" fill="#FF2655"/>
</svg>
