<svg width="198" height="59" viewBox="0 0 198 59" fill="none" xmlns="http://www.w3.org/2000/svg">
<path d="M8.23047 8.34375C8.23047 12.1992 10.0215 16.123 13.3984 17.9414L11.9492 19.8555C9.57031 18.5977 7.92969 16.2598 7.04102 13.4844C6.16602 16.4512 4.52539 19.0078 2.16016 20.4297L0.628906 18.4609C4.01953 16.4922 5.76953 12.2949 5.79688 8.34375V7.35938H1.36719V5.22656H5.79688V1.69922H8.23047V5.22656H12.5781V7.35938H8.23047V8.34375ZM10.9648 12.5273V10.3672H14.4922V1.34375H16.9531V24.0938H14.4922V12.5273H10.9648ZM19.4414 25.3242V0.824219H21.9297V25.3242H19.4414ZM45.1453 0.824219V25.3789H42.5477V0.824219H45.1453ZM26.1688 5.14453V3.03906H37.6531V11.9805H28.8484V17.3398C32.827 17.3262 36.2859 17.1348 40.3875 16.4648L40.6336 18.5977C36.2996 19.3223 32.6082 19.4863 28.2742 19.5H26.1961V9.90234H35.0008V5.14453H26.1688ZM69.5914 0.851562V14.168H67.1305V8.45312H64.2594V14.0039H61.8531V1.28906H64.2594V6.29297H67.1305V0.851562H69.5914ZM49.7398 12.9648V2.51953H59.3102V12.9648H49.7398ZM52.1734 10.8867H56.9039V4.54297H52.1734V10.8867ZM53.2398 25.0234V15.2344H55.8102V17.9141H67.0484V15.2344H69.5914V25.0234H53.2398ZM55.8102 22.918H67.0484V20.0195H55.8102V22.918ZM85.0141 2.98438V14.4141H73.557V2.98438H85.0141ZM76.1 12.3633H82.4711V5.08984H76.1V12.3633ZM76.3187 24.8047V17.0391H78.9164V22.6992H92.8891V24.8047H76.3187ZM89.2523 18.7617V0.796875H91.85V8.125H95.4047V10.3125H91.85V18.7617H89.2523ZM104.484 2.57422C108.353 2.56055 111.142 4.95312 111.155 8.39844C111.142 11.8438 108.353 14.2363 104.484 14.25C100.628 14.2363 97.798 11.8438 97.8117 8.39844C97.798 4.95312 100.628 2.56055 104.484 2.57422ZM96.6359 17.9414C101.093 17.9414 107.273 17.9004 112.632 17.1211L112.823 19.0078C107.286 20.0742 101.339 20.1016 96.9641 20.1016L96.6359 17.9414ZM100.382 8.39844C100.355 10.5723 102.105 11.9805 104.484 11.9805C106.863 11.9805 108.613 10.5723 108.613 8.39844C108.613 6.25195 106.863 4.81641 104.484 4.81641C102.105 4.81641 100.355 6.25195 100.382 8.39844ZM114.163 25.3789V0.824219H116.761V25.3789H114.163ZM146.184 0.796875V8.125H149.739V10.3125H146.184V18.8164H143.587V0.796875H146.184ZM127.317 8.58984C127.29 5.02148 130.134 2.50586 133.825 2.49219C137.53 2.50586 140.333 5.02148 140.36 8.58984C140.333 12.1582 137.53 14.7012 133.825 14.6875C130.134 14.7012 127.29 12.1582 127.317 8.58984ZM129.86 8.58984C129.833 10.873 131.583 12.418 133.825 12.418C136.095 12.418 137.804 10.873 137.817 8.58984C137.804 6.30664 136.095 4.76172 133.825 4.76172C131.583 4.76172 129.833 6.30664 129.86 8.58984ZM130.653 24.8047V16.9297H133.251V22.6992H147.223V24.8047H130.653ZM171.806 0.824219V25.3242H169.318V12.7734H166.173V24.0664H163.74V1.31641H166.173V10.6406H169.318V0.824219H171.806ZM151.982 19.0898V3.72266H154.58V16.8066C156.836 16.7793 159.31 16.6016 162.099 16.0547L162.373 18.3242C159.009 18.9258 156.207 19.1035 153.568 19.0898H151.982ZM197.155 20.2109V22.3984H174.733V20.2109H184.604V15.918H177.467V8.125H191.85V4.67969H177.413V2.54688H194.42V10.2031H180.038V13.7852H194.995V15.918H187.174V20.2109H197.155ZM13.3438 36.0938V38.2539H4.73047V50.2031C8.8457 50.1758 11.6484 50.0254 14.875 49.4102L15.1758 51.543C11.6484 52.2129 8.66797 52.3633 4.04688 52.3633H2.10547V36.0938H13.3438ZM11.9492 44.7344V42.5742H18.7578V33.8242H21.3555V58.3789H18.7578V44.7344H11.9492ZM47.1414 45.6094V47.6875H37.243V50.3945H44.407V58.3242H41.782V52.4453H27.2898V50.3945H34.6727V47.6875H24.8016V45.6094H47.1414ZM27.2078 39.1562C27.1941 36.1621 30.5984 34.3574 35.9578 34.3711C41.3035 34.3574 44.6941 36.1621 44.7078 39.1562C44.6941 42.0957 41.3035 43.9004 35.9578 43.8867C30.5984 43.9004 27.1941 42.0957 27.2078 39.1562ZM29.8875 39.1562C29.8738 40.8652 32.1844 41.8496 35.9578 41.8359C39.7039 41.8496 42.0418 40.8652 42.0281 39.1562C42.0418 37.4336 39.7039 36.4082 35.9578 36.4219C32.1844 36.4082 29.8738 37.4336 29.8875 39.1562ZM67.6781 36.0938V38.2539H59.0648V50.2031C63.1801 50.1758 65.9828 50.0254 69.2094 49.4102L69.5102 51.543C65.9828 52.2129 63.0023 52.3633 58.3812 52.3633H56.4398V36.0938H67.6781ZM66.2836 44.7344V42.5742H73.0922V33.8242H75.6898V58.3789H73.0922V44.7344H66.2836ZM104.922 33.7969V41.125H108.477V43.3125H104.922V51.8164H102.324V33.7969H104.922ZM86.0547 41.5898C86.0273 38.0215 88.8711 35.5059 92.5625 35.4922C96.2676 35.5059 99.0703 38.0215 99.0977 41.5898C99.0703 45.1582 96.2676 47.7012 92.5625 47.6875C88.8711 47.7012 86.0273 45.1582 86.0547 41.5898ZM88.5977 41.5898C88.5703 43.873 90.3203 45.418 92.5625 45.418C94.832 45.418 96.541 43.873 96.5547 41.5898C96.541 39.3066 94.832 37.7617 92.5625 37.7617C90.3203 37.7617 88.5703 39.3066 88.5977 41.5898ZM89.3906 57.8047V49.9297H91.9883V55.6992H105.961V57.8047H89.3906ZM129.997 33.8516V51.7891H127.399V42.5742H122.723V40.4688H127.399V33.8516H129.997ZM109.598 46.6758C113.358 45.4043 115.71 42.1777 115.696 38.8008V37.8438H110.391V35.7109H123.598V37.8438H118.348V38.8008C118.335 41.8496 120.55 44.9258 124.255 46.1562L122.915 48.2344C120.167 47.2773 118.13 45.3086 117.063 42.875C115.997 45.582 113.85 47.7422 110.938 48.7812L109.598 46.6758ZM114.083 57.8047V50.1758H116.68V55.6992H130.653V57.8047H114.083ZM152.556 33.8242V43.75H156.494V45.9102H152.556V58.3242H149.986V33.8242H152.556ZM133.334 39.7852V37.6523H139.377V34.1523H141.974V37.6523H147.853V39.7852H133.334ZM134.591 47.2773C134.591 43.9414 137.162 41.5898 140.689 41.5898C144.203 41.5898 146.773 43.9414 146.787 47.2773C146.773 50.6406 144.203 52.9785 140.689 52.9922C137.162 52.9785 134.591 50.6406 134.591 47.2773ZM137.08 47.2773C137.066 49.4102 138.597 50.832 140.689 50.8047C142.767 50.832 144.285 49.4102 144.298 47.2773C144.285 45.1855 142.767 43.7363 140.689 43.7227C138.597 43.7363 137.066 45.1855 137.08 47.2773ZM178.424 33.8242V58.3242H175.963V33.8242H178.424ZM157.288 51.2422C162.483 48.1523 164.971 44.0371 165.422 38.9922H158.436V36.8594H168.006C167.993 39.252 167.664 41.5352 166.913 43.668H170.795V34.4531H173.256V57.1211H170.795V45.7461H166.01C164.561 48.5898 162.223 51.0781 158.764 53.1016L157.288 51.2422ZM185.78 36.2031L185.534 50.2852H182.827L182.581 36.2031H185.78ZM182.253 54.25C182.239 53.1836 183.128 52.3086 184.195 52.3086C185.247 52.3086 186.122 53.1836 186.136 54.25C186.122 55.3164 185.247 56.1777 184.195 56.1914C183.128 56.1777 182.239 55.3164 182.253 54.25Z" fill="black"/>
</svg>
